<?xml version="1.0" encoding="utf-8"?>
<!-- Generator: Adobe Illustrator 23.0.2, SVG Export Plug-In . SVG Version: 6.00 Build 0)  -->
<svg version="1.1" id="Layer_1" xmlns="http://www.w3.org/2000/svg" xmlns:xlink="http://www.w3.org/1999/xlink" x="0px" y="0px"
	 width="100px" height="20px" viewBox="0 0 300 66" style="enable-background:new 0 0 300 66;" xml:space="preserve">
<style type="text/css">
	.st0{fill:#FFFFFF;}
</style>
<g>
	<path class="st0" d="M42.4,5.9L16.4,64.9h-5.3L39.7,1.2h5.4l28.6,63.7h-5.3L42.4,5.9z"/>
	<path class="st0" d="M148.4,1.2v59h35.8v4.6h-40.7V1.2H148.4z"/>
	<g>
		<polygon class="st0" points="198.3,60.1 198.3,5.9 237.4,5.9 237.4,1.2 193.5,1.2 193.5,64.9 238.5,64.9 238.5,60.1 		"/>
		<rect x="205.9" y="30.6" class="st0" width="29.7" height="4.5"/>
	</g>
	<rect x="248.2" y="1.3" class="st0" width="50.9" height="4.4"/>
	<rect x="271.2" y="13.3" class="st0" width="4.9" height="52.4"/>
	<g>
		<polygon class="st0" points="29.5,1.2 0.9,64.9 6.2,64.9 34.2,1.2 		"/>
	</g>
	<path class="st0" d="M105.8,31.6v4.3H128v17.8c-5.5,5-12.6,7.4-19.4,7.4c-18.6,0-28.1-12.9-28.1-27.9c-0.1-14.7,9.5-28.4,28.1-28.4
		c7.2,0,14.9,2.7,20.5,8.2l2.8-3.1c-6.5-6.4-14.9-9.6-23.3-9.6c-19.4,0-32.9,13-32.8,32.9c0,17.4,11.2,32.5,32.8,32.5
		c9.5,0,17.4-3.6,24-10.3V31.6H105.8z"/>
</g>
</svg>
